<svg width="28" height="16" viewBox="0 0 28 16" fill="none" xmlns="http://www.w3.org/2000/svg">
<path d="M16.604 8.08208C16.604 5.04968 13.7842 2 10.3451 2C9.93777 2 8.59497 2.00001 8.25886 2.00001C4.80219 2.00001 2 4.72306 2 8.08208C2 10.9766 4.08074 13.3989 6.868 14.0135C7.31532 14.1122 7.78082 14.1642 8.25886 14.1642" stroke="white" stroke-width="3" stroke-linecap="round" stroke-linejoin="round"/>
<path d="M11.736 8.08209C11.736 11.1145 14.5558 14.1642 17.9949 14.1642C18.4022 14.1642 19.7451 14.1642 20.0811 14.1642C23.5379 14.1642 26.34 11.4411 26.34 8.08209C26.34 5.18758 24.2593 2.76531 21.472 2.15071C21.0246 2.05208 20.5591 2 20.0811 2" stroke="white" stroke-width="3" stroke-linecap="round" stroke-linejoin="round"/>
</svg>
