<svg width="56" height="57" viewBox="0 0 56 57" fill="none" xmlns="http://www.w3.org/2000/svg">
<path d="M27.6798 1.21971L27.68 1.21971C29.8754 1.20983 32.1669 1.37663 34.3821 1.74513L34.3825 1.74519C38.1111 2.36681 41.4875 5.22003 41.4875 9.25037V21.1906C41.4875 25.2239 38.2765 28.5626 34.218 28.5626H21.6928C17.9944 28.5626 14.8593 31.7634 14.8593 35.3524V41.0816V42.0816H13.8593H9.54747C7.45552 42.0816 5.7544 41.3115 4.46734 39.9939C3.20285 38.6994 2.38298 36.9254 1.91068 34.9582M27.6798 1.21971L2.88293 34.7243M27.6798 1.21971C25.4844 1.23011 23.381 1.41665 21.5184 1.74632L27.6798 1.21971ZM1.91068 34.9582C1.91064 34.958 1.9106 34.9579 1.91056 34.9577L2.88293 34.7243M1.91068 34.9582C1.91072 34.9584 1.91076 34.9585 1.91079 34.9587L2.88293 34.7243M1.91068 34.9582C1.29797 32.4169 0.993419 30.3412 1.00011 28.2698C1.0068 26.1988 1.32452 24.1771 1.91065 21.7464M2.88293 34.7243C1.68043 29.737 1.73122 26.7562 2.88293 21.9802M1.91065 21.7464C1.91058 21.7467 1.91051 21.747 1.91044 21.7473L2.88293 21.9802M1.91065 21.7464C1.9107 21.7462 1.91075 21.746 1.9108 21.7458L2.88293 21.9802M1.91065 21.7464L2.88293 21.9802M26.9623 15.0289H27.9623V15.6219H26.9623V15.0289ZM26.9623 15.0289V14.6219M26.9623 15.0289H15.4229H14.4229V14.6219H15.4229H26.9623M26.9623 14.6219H27.9623V14.0289H26.9623V14.6219ZM19.5505 8.46072V8.46033C19.5502 7.67246 20.1734 7.06334 20.9032 7.06334C21.6292 7.06334 22.2564 7.6739 22.2564 8.46072C22.2564 9.23499 21.6366 9.84236 20.9032 9.84236C20.1667 9.84236 19.5505 9.23655 19.5505 8.46072Z" stroke="white" stroke-width="2"/>
<path d="M42.0509 14.6219L41.051 14.622V15.6219V21.1905C41.051 24.962 37.8311 28.1404 34.2175 28.1404H21.6923C17.6888 28.1404 14.4229 31.5455 14.4229 35.5129V47.4541C14.4229 51.5717 18.0126 53.7862 21.4103 54.785L21.4103 54.7851C25.5471 56.0008 29.5486 56.2211 34.4958 54.7861C36.1447 54.3084 37.8676 53.5672 39.1945 52.4061C40.55 51.2198 41.487 49.5939 41.487 47.4541V42.6746V42.0811H46.7574C48.8612 42.0811 50.3929 41.3257 51.543 39.9842C52.6359 38.7095 53.3417 36.9512 53.9769 35.039C55.363 30.8796 55.2816 26.8993 53.9983 21.7384C53.5313 19.8575 52.826 18.0894 51.6745 16.7796C50.4872 15.4292 48.8718 14.6214 46.7574 14.6214H46.7573L42.0509 14.6219ZM35.0061 46.8606C35.7429 46.8606 36.3593 47.4663 36.3593 48.2432C36.3593 49.0302 35.7361 49.6396 35.0061 49.6396C34.2801 49.6396 33.6534 49.0291 33.6534 48.2432C33.6534 47.4675 34.2737 46.8606 35.0061 46.8606Z" stroke="white" stroke-width="2"/>
</svg>
